<svg style="position: absolute; width: 0; height: 0; overflow: hidden;" version="1.1" xmlns="http://www.w3.org/2000/svg" xmlns:xlink="http://www.w3.org/1999/xlink">
<defs>
<symbol id="icon-umr" viewBow="0 0 32 32">
<title>ambulance-cross</title>
<path class="cls-1" d="M73.67,46.26,59.23,37.92l14.45-8.34A.93.93,0,0,0,74,28.3L64.15,11.22a.93.93,0,0,0-1.28-.34L48.43,19.22V2.53a.94.94,0,0,0-.94-.94H27.77a.94.94,0,0,0-.94.94V19.22L12.38,10.88a.94.94,0,0,0-1.28.34L1.24,28.3a.93.93,0,0,0,.34,1.28L16,37.92,1.58,46.26a.93.93,0,0,0-.34,1.28L11.1,64.62a.93.93,0,0,0,1.28.34l14.45-8.34V73.31a.94.94,0,0,0,.94.94H47.49a.94.94,0,0,0,.94-.94V56.62L62.88,65a.93.93,0,0,0,1.28-.34L74,47.54a.93.93,0,0,0-.34-1.28ZM63,62.88,48,54.19a.94.94,0,0,0-1.4.81V72.37H28.7V55a.94.94,0,0,0-1.4-.81l-15,8.68L3.33,47.42l15-8.68a.94.94,0,0,0,0-1.62l-15-8.68L12.26,13l15,8.68a.94.94,0,0,0,1.4-.81V3.47H46.55V20.84a.94.94,0,0,0,1.4.81L63,13l8.93,15.46-15,8.68a.94.94,0,0,0,0,1.62l15,8.68Z"></path> <path class="cls-1" d="M46.65,24.52a1.86,1.86,0,0,0-.54.11.92.92,0,0,0-.21-.36,13.11,13.11,0,0,0-7.33-3.09V17.61a.94.94,0,0,0-1.87,0v3.55c-4.15.32-8.15,2.73-8.15,6.58,0,4.21,2.69,6.35,8.15,6.58v6.35c-6.69.28-8.15,3.54-8.15,6.3,0,4.14,2.69,6.24,8.15,6.46v7.74a.94.94,0,1,0,1.87,0V53.43c8.11-.41,8.14-6,8.14-8.48a.94.94,0,1,0-1.87,0c0,2.53,0,6.27-6.26,6.61V42.5c3.73-.07,5.75-.55,6.83-1.63a4.47,4.47,0,0,0,1-3.47v-.19c0-3.69-3-4.6-7.81-4.7V23.06a11.43,11.43,0,0,1,6,2.54.93.93,0,0,0,.3.2,1.88,1.88,0,0,0-.13.64,1.91,1.91,0,1,0,1.91-1.91ZM30.42,27.74c0-2.67,3.1-4.4,6.28-4.69v9.41C31.21,32.25,30.42,30.08,30.42,27.74Zm0,19.22c0-1.05,0-4.14,6.28-4.42v9C30.43,51.3,30.42,48.29,30.42,47ZM44.5,37.21v.2c0,1.09,0,1.73-.43,2.15-.67.67-2.48,1-5.5,1.08V34.37C44,34.49,44.5,35.68,44.5,37.21Z"></path>
</defs>
</svg>
